G04 #@! TF.GenerationSoftware,KiCad,Pcbnew,5.1.5-52549c5~86~ubuntu18.04.1*
G04 #@! TF.CreationDate,2020-04-19T21:09:33+03:00*
G04 #@! TF.ProjectId,buzzer,62757a7a-6572-42e6-9b69-6361645f7063,rev?*
G04 #@! TF.SameCoordinates,Original*
G04 #@! TF.FileFunction,Copper,L2,Bot*
G04 #@! TF.FilePolarity,Positive*
%FSLAX46Y46*%
G04 Gerber Fmt 4.6, Leading zero omitted, Abs format (unit mm)*
G04 Created by KiCad (PCBNEW 5.1.5-52549c5~86~ubuntu18.04.1) date 2020-04-19 21:09:33*
%MOMM*%
%LPD*%
G04 APERTURE LIST*
%ADD10C,0.300000*%
%ADD11C,1.600000*%
%ADD12C,2.000000*%
%ADD13R,2.000000X2.000000*%
%ADD14C,0.500000*%
G04 APERTURE END LIST*
D10*
X143509904Y-95138857D02*
X141986095Y-95138857D01*
X144271904Y-83454857D02*
X142748095Y-83454857D01*
X143510000Y-84216761D02*
X143510000Y-82692952D01*
D11*
X130302000Y-90170000D03*
X130302000Y-83820000D03*
D12*
X146050000Y-92690000D03*
D13*
X146050000Y-85090000D03*
D11*
X135890000Y-92710000D03*
X133350000Y-92710000D03*
D12*
X140462000Y-94234000D03*
D13*
X138430000Y-90130000D03*
D12*
X138430000Y-87630000D03*
X138430000Y-85130000D03*
X133350000Y-85170000D03*
X133350000Y-87670000D03*
D13*
X133350000Y-90170000D03*
D12*
X140970000Y-83820000D03*
D14*
X138430000Y-92464002D02*
X138430000Y-90170000D01*
X136634001Y-94260001D02*
X138430000Y-92464002D01*
X132097999Y-94260001D02*
X136634001Y-94260001D01*
X128751999Y-90914001D02*
X132097999Y-94260001D01*
X128751999Y-89425999D02*
X128751999Y-90914001D01*
X133350000Y-87630000D02*
X130547998Y-87630000D01*
X130547998Y-87630000D02*
X128751999Y-89425999D01*
X135890000Y-88755787D02*
X135890000Y-92848630D01*
X138430000Y-87630000D02*
X137015787Y-87630000D01*
X137015787Y-87630000D02*
X135890000Y-88755787D01*
X138430000Y-87630000D02*
X145010000Y-87630000D01*
X146050000Y-86590000D02*
X146050000Y-85090000D01*
X145010000Y-87630000D02*
X146050000Y-86590000D01*
X133350000Y-90170000D02*
X133350000Y-92710000D01*
X133350000Y-90170000D02*
X130302000Y-90170000D01*
X138430000Y-85090000D02*
X136360001Y-83020001D01*
X138938000Y-85090000D02*
X140716000Y-83312000D01*
X138430000Y-85090000D02*
X138938000Y-85090000D01*
X132233369Y-83020001D02*
X136360001Y-83020001D01*
X130302000Y-83820000D02*
X131433370Y-83820000D01*
X131433370Y-83820000D02*
X132233369Y-83020001D01*
X132080000Y-85090000D02*
X130540010Y-86629990D01*
X133350000Y-85090000D02*
X132080000Y-85090000D01*
X139435988Y-95260012D02*
X140462000Y-94234000D01*
X140462000Y-94234000D02*
X141876213Y-94234000D01*
X143400213Y-92710000D02*
X146050000Y-92710000D01*
X141876213Y-94234000D02*
X143400213Y-92710000D01*
X130133781Y-86629990D02*
X127751991Y-89011781D01*
X130540010Y-86629990D02*
X130133781Y-86629990D01*
X127751991Y-89011781D02*
X127751991Y-91328219D01*
X131683784Y-95260012D02*
X139435988Y-95260012D01*
X127751991Y-91328219D02*
X131683784Y-95260012D01*
M02*
