G04 #@! TF.GenerationSoftware,KiCad,Pcbnew,5.1.5-52549c5~86~ubuntu18.04.1*
G04 #@! TF.CreationDate,2020-04-19T21:09:33+03:00*
G04 #@! TF.ProjectId,buzzer,62757a7a-6572-42e6-9b69-6361645f7063,rev?*
G04 #@! TF.SameCoordinates,Original*
G04 #@! TF.FileFunction,Soldermask,Bot*
G04 #@! TF.FilePolarity,Negative*
%FSLAX46Y46*%
G04 Gerber Fmt 4.6, Leading zero omitted, Abs format (unit mm)*
G04 Created by KiCad (PCBNEW 5.1.5-52549c5~86~ubuntu18.04.1) date 2020-04-19 21:09:33*
%MOMM*%
%LPD*%
G04 APERTURE LIST*
%ADD10C,0.100000*%
G04 APERTURE END LIST*
D10*
G36*
X140768564Y-93223389D02*
G01*
X140959833Y-93302615D01*
X140959835Y-93302616D01*
X141131973Y-93417635D01*
X141278365Y-93564027D01*
X141369628Y-93700611D01*
X141393385Y-93736167D01*
X141472611Y-93927436D01*
X141513000Y-94130484D01*
X141513000Y-94337516D01*
X141472611Y-94540564D01*
X141393385Y-94731833D01*
X141393384Y-94731835D01*
X141278365Y-94903973D01*
X141131973Y-95050365D01*
X140959835Y-95165384D01*
X140959834Y-95165385D01*
X140959833Y-95165385D01*
X140768564Y-95244611D01*
X140565516Y-95285000D01*
X140358484Y-95285000D01*
X140155436Y-95244611D01*
X139964167Y-95165385D01*
X139964166Y-95165385D01*
X139964165Y-95165384D01*
X139792027Y-95050365D01*
X139645635Y-94903973D01*
X139530616Y-94731835D01*
X139530615Y-94731833D01*
X139451389Y-94540564D01*
X139411000Y-94337516D01*
X139411000Y-94130484D01*
X139451389Y-93927436D01*
X139530615Y-93736167D01*
X139554373Y-93700611D01*
X139645635Y-93564027D01*
X139792027Y-93417635D01*
X139964165Y-93302616D01*
X139964167Y-93302615D01*
X140155436Y-93223389D01*
X140358484Y-93183000D01*
X140565516Y-93183000D01*
X140768564Y-93223389D01*
G37*
G36*
X146356564Y-91679389D02*
G01*
X146547833Y-91758615D01*
X146547835Y-91758616D01*
X146719973Y-91873635D01*
X146866365Y-92020027D01*
X146964917Y-92167520D01*
X146981385Y-92192167D01*
X147060611Y-92383436D01*
X147101000Y-92586484D01*
X147101000Y-92793516D01*
X147060611Y-92996564D01*
X147012340Y-93113100D01*
X146981384Y-93187835D01*
X146866365Y-93359973D01*
X146719973Y-93506365D01*
X146547835Y-93621384D01*
X146547834Y-93621385D01*
X146547833Y-93621385D01*
X146356564Y-93700611D01*
X146153516Y-93741000D01*
X145946484Y-93741000D01*
X145743436Y-93700611D01*
X145552167Y-93621385D01*
X145552166Y-93621385D01*
X145552165Y-93621384D01*
X145380027Y-93506365D01*
X145233635Y-93359973D01*
X145118616Y-93187835D01*
X145087660Y-93113100D01*
X145039389Y-92996564D01*
X144999000Y-92793516D01*
X144999000Y-92586484D01*
X145039389Y-92383436D01*
X145118615Y-92192167D01*
X145135084Y-92167520D01*
X145233635Y-92020027D01*
X145380027Y-91873635D01*
X145552165Y-91758616D01*
X145552167Y-91758615D01*
X145743436Y-91679389D01*
X145946484Y-91639000D01*
X146153516Y-91639000D01*
X146356564Y-91679389D01*
G37*
G36*
X136138228Y-91891703D02*
G01*
X136293100Y-91955853D01*
X136432481Y-92048985D01*
X136551015Y-92167519D01*
X136644147Y-92306900D01*
X136708297Y-92461772D01*
X136741000Y-92626184D01*
X136741000Y-92793816D01*
X136708297Y-92958228D01*
X136644147Y-93113100D01*
X136551015Y-93252481D01*
X136432481Y-93371015D01*
X136293100Y-93464147D01*
X136138228Y-93528297D01*
X135973816Y-93561000D01*
X135806184Y-93561000D01*
X135641772Y-93528297D01*
X135486900Y-93464147D01*
X135347519Y-93371015D01*
X135228985Y-93252481D01*
X135135853Y-93113100D01*
X135071703Y-92958228D01*
X135039000Y-92793816D01*
X135039000Y-92626184D01*
X135071703Y-92461772D01*
X135135853Y-92306900D01*
X135228985Y-92167519D01*
X135347519Y-92048985D01*
X135486900Y-91955853D01*
X135641772Y-91891703D01*
X135806184Y-91859000D01*
X135973816Y-91859000D01*
X136138228Y-91891703D01*
G37*
G36*
X133598228Y-91891703D02*
G01*
X133753100Y-91955853D01*
X133892481Y-92048985D01*
X134011015Y-92167519D01*
X134104147Y-92306900D01*
X134168297Y-92461772D01*
X134201000Y-92626184D01*
X134201000Y-92793816D01*
X134168297Y-92958228D01*
X134104147Y-93113100D01*
X134011015Y-93252481D01*
X133892481Y-93371015D01*
X133753100Y-93464147D01*
X133598228Y-93528297D01*
X133433816Y-93561000D01*
X133266184Y-93561000D01*
X133101772Y-93528297D01*
X132946900Y-93464147D01*
X132807519Y-93371015D01*
X132688985Y-93252481D01*
X132595853Y-93113100D01*
X132531703Y-92958228D01*
X132499000Y-92793816D01*
X132499000Y-92626184D01*
X132531703Y-92461772D01*
X132595853Y-92306900D01*
X132688985Y-92167519D01*
X132807519Y-92048985D01*
X132946900Y-91955853D01*
X133101772Y-91891703D01*
X133266184Y-91859000D01*
X133433816Y-91859000D01*
X133598228Y-91891703D01*
G37*
G36*
X134401000Y-91221000D02*
G01*
X132299000Y-91221000D01*
X132299000Y-89119000D01*
X134401000Y-89119000D01*
X134401000Y-91221000D01*
G37*
G36*
X139481000Y-91181000D02*
G01*
X137379000Y-91181000D01*
X137379000Y-89079000D01*
X139481000Y-89079000D01*
X139481000Y-91181000D01*
G37*
G36*
X130550228Y-89351703D02*
G01*
X130705100Y-89415853D01*
X130844481Y-89508985D01*
X130963015Y-89627519D01*
X131056147Y-89766900D01*
X131120297Y-89921772D01*
X131153000Y-90086184D01*
X131153000Y-90253816D01*
X131120297Y-90418228D01*
X131056147Y-90573100D01*
X130963015Y-90712481D01*
X130844481Y-90831015D01*
X130705100Y-90924147D01*
X130550228Y-90988297D01*
X130385816Y-91021000D01*
X130218184Y-91021000D01*
X130053772Y-90988297D01*
X129898900Y-90924147D01*
X129759519Y-90831015D01*
X129640985Y-90712481D01*
X129547853Y-90573100D01*
X129483703Y-90418228D01*
X129451000Y-90253816D01*
X129451000Y-90086184D01*
X129483703Y-89921772D01*
X129547853Y-89766900D01*
X129640985Y-89627519D01*
X129759519Y-89508985D01*
X129898900Y-89415853D01*
X130053772Y-89351703D01*
X130218184Y-89319000D01*
X130385816Y-89319000D01*
X130550228Y-89351703D01*
G37*
G36*
X133656564Y-86659389D02*
G01*
X133847833Y-86738615D01*
X133847835Y-86738616D01*
X133960109Y-86813635D01*
X134019973Y-86853635D01*
X134166365Y-87000027D01*
X134281385Y-87172167D01*
X134360611Y-87363436D01*
X134401000Y-87566484D01*
X134401000Y-87773516D01*
X134360611Y-87976564D01*
X134281385Y-88167833D01*
X134281384Y-88167835D01*
X134166365Y-88339973D01*
X134019973Y-88486365D01*
X133847835Y-88601384D01*
X133847834Y-88601385D01*
X133847833Y-88601385D01*
X133656564Y-88680611D01*
X133453516Y-88721000D01*
X133246484Y-88721000D01*
X133043436Y-88680611D01*
X132852167Y-88601385D01*
X132852166Y-88601385D01*
X132852165Y-88601384D01*
X132680027Y-88486365D01*
X132533635Y-88339973D01*
X132418616Y-88167835D01*
X132418615Y-88167833D01*
X132339389Y-87976564D01*
X132299000Y-87773516D01*
X132299000Y-87566484D01*
X132339389Y-87363436D01*
X132418615Y-87172167D01*
X132533635Y-87000027D01*
X132680027Y-86853635D01*
X132739891Y-86813635D01*
X132852165Y-86738616D01*
X132852167Y-86738615D01*
X133043436Y-86659389D01*
X133246484Y-86619000D01*
X133453516Y-86619000D01*
X133656564Y-86659389D01*
G37*
G36*
X138736564Y-86619389D02*
G01*
X138927833Y-86698615D01*
X138927835Y-86698616D01*
X138987699Y-86738616D01*
X139099973Y-86813635D01*
X139246365Y-86960027D01*
X139361385Y-87132167D01*
X139440611Y-87323436D01*
X139481000Y-87526484D01*
X139481000Y-87733516D01*
X139440611Y-87936564D01*
X139424042Y-87976565D01*
X139361384Y-88127835D01*
X139246365Y-88299973D01*
X139099973Y-88446365D01*
X138927835Y-88561384D01*
X138927834Y-88561385D01*
X138927833Y-88561385D01*
X138736564Y-88640611D01*
X138533516Y-88681000D01*
X138326484Y-88681000D01*
X138123436Y-88640611D01*
X137932167Y-88561385D01*
X137932166Y-88561385D01*
X137932165Y-88561384D01*
X137760027Y-88446365D01*
X137613635Y-88299973D01*
X137498616Y-88127835D01*
X137435958Y-87976565D01*
X137419389Y-87936564D01*
X137379000Y-87733516D01*
X137379000Y-87526484D01*
X137419389Y-87323436D01*
X137498615Y-87132167D01*
X137613635Y-86960027D01*
X137760027Y-86813635D01*
X137872301Y-86738616D01*
X137932165Y-86698616D01*
X137932167Y-86698615D01*
X138123436Y-86619389D01*
X138326484Y-86579000D01*
X138533516Y-86579000D01*
X138736564Y-86619389D01*
G37*
G36*
X133656564Y-84159389D02*
G01*
X133810369Y-84223097D01*
X133847835Y-84238616D01*
X134019973Y-84353635D01*
X134166365Y-84500027D01*
X134280606Y-84671000D01*
X134281385Y-84672167D01*
X134360611Y-84863436D01*
X134401000Y-85066484D01*
X134401000Y-85273516D01*
X134360611Y-85476564D01*
X134281385Y-85667833D01*
X134281384Y-85667835D01*
X134166365Y-85839973D01*
X134019973Y-85986365D01*
X133847835Y-86101384D01*
X133847834Y-86101385D01*
X133847833Y-86101385D01*
X133656564Y-86180611D01*
X133453516Y-86221000D01*
X133246484Y-86221000D01*
X133043436Y-86180611D01*
X132852167Y-86101385D01*
X132852166Y-86101385D01*
X132852165Y-86101384D01*
X132680027Y-85986365D01*
X132533635Y-85839973D01*
X132418616Y-85667835D01*
X132418615Y-85667833D01*
X132339389Y-85476564D01*
X132299000Y-85273516D01*
X132299000Y-85066484D01*
X132339389Y-84863436D01*
X132418615Y-84672167D01*
X132419395Y-84671000D01*
X132533635Y-84500027D01*
X132680027Y-84353635D01*
X132852165Y-84238616D01*
X132889631Y-84223097D01*
X133043436Y-84159389D01*
X133246484Y-84119000D01*
X133453516Y-84119000D01*
X133656564Y-84159389D01*
G37*
G36*
X138736564Y-84119389D02*
G01*
X138927833Y-84198615D01*
X138927835Y-84198616D01*
X139099973Y-84313635D01*
X139246365Y-84460027D01*
X139322618Y-84574147D01*
X139361385Y-84632167D01*
X139440611Y-84823436D01*
X139481000Y-85026484D01*
X139481000Y-85233516D01*
X139440611Y-85436564D01*
X139424042Y-85476565D01*
X139361384Y-85627835D01*
X139246365Y-85799973D01*
X139099973Y-85946365D01*
X138927835Y-86061384D01*
X138927834Y-86061385D01*
X138927833Y-86061385D01*
X138736564Y-86140611D01*
X138533516Y-86181000D01*
X138326484Y-86181000D01*
X138123436Y-86140611D01*
X137932167Y-86061385D01*
X137932166Y-86061385D01*
X137932165Y-86061384D01*
X137760027Y-85946365D01*
X137613635Y-85799973D01*
X137498616Y-85627835D01*
X137435958Y-85476565D01*
X137419389Y-85436564D01*
X137379000Y-85233516D01*
X137379000Y-85026484D01*
X137419389Y-84823436D01*
X137498615Y-84632167D01*
X137537383Y-84574147D01*
X137613635Y-84460027D01*
X137760027Y-84313635D01*
X137932165Y-84198616D01*
X137932167Y-84198615D01*
X138123436Y-84119389D01*
X138326484Y-84079000D01*
X138533516Y-84079000D01*
X138736564Y-84119389D01*
G37*
G36*
X147101000Y-86141000D02*
G01*
X144999000Y-86141000D01*
X144999000Y-84039000D01*
X147101000Y-84039000D01*
X147101000Y-86141000D01*
G37*
G36*
X141276564Y-82809389D02*
G01*
X141467833Y-82888615D01*
X141467835Y-82888616D01*
X141588138Y-82969000D01*
X141639973Y-83003635D01*
X141786365Y-83150027D01*
X141901385Y-83322167D01*
X141980611Y-83513436D01*
X142021000Y-83716484D01*
X142021000Y-83923516D01*
X141980611Y-84126564D01*
X141903124Y-84313635D01*
X141901384Y-84317835D01*
X141786365Y-84489973D01*
X141639973Y-84636365D01*
X141467835Y-84751384D01*
X141467834Y-84751385D01*
X141467833Y-84751385D01*
X141276564Y-84830611D01*
X141073516Y-84871000D01*
X140866484Y-84871000D01*
X140663436Y-84830611D01*
X140472167Y-84751385D01*
X140472166Y-84751385D01*
X140472165Y-84751384D01*
X140300027Y-84636365D01*
X140153635Y-84489973D01*
X140038616Y-84317835D01*
X140036876Y-84313635D01*
X139959389Y-84126564D01*
X139919000Y-83923516D01*
X139919000Y-83716484D01*
X139959389Y-83513436D01*
X140038615Y-83322167D01*
X140153635Y-83150027D01*
X140300027Y-83003635D01*
X140351862Y-82969000D01*
X140472165Y-82888616D01*
X140472167Y-82888615D01*
X140663436Y-82809389D01*
X140866484Y-82769000D01*
X141073516Y-82769000D01*
X141276564Y-82809389D01*
G37*
G36*
X130550228Y-83001703D02*
G01*
X130705100Y-83065853D01*
X130844481Y-83158985D01*
X130963015Y-83277519D01*
X131056147Y-83416900D01*
X131120297Y-83571772D01*
X131153000Y-83736184D01*
X131153000Y-83903816D01*
X131120297Y-84068228D01*
X131056147Y-84223100D01*
X130963015Y-84362481D01*
X130844481Y-84481015D01*
X130705100Y-84574147D01*
X130550228Y-84638297D01*
X130385816Y-84671000D01*
X130218184Y-84671000D01*
X130053772Y-84638297D01*
X129898900Y-84574147D01*
X129759519Y-84481015D01*
X129640985Y-84362481D01*
X129547853Y-84223100D01*
X129483703Y-84068228D01*
X129451000Y-83903816D01*
X129451000Y-83736184D01*
X129483703Y-83571772D01*
X129547853Y-83416900D01*
X129640985Y-83277519D01*
X129759519Y-83158985D01*
X129898900Y-83065853D01*
X130053772Y-83001703D01*
X130218184Y-82969000D01*
X130385816Y-82969000D01*
X130550228Y-83001703D01*
G37*
M02*
