G04 #@! TF.GenerationSoftware,KiCad,Pcbnew,5.1.5-52549c5~86~ubuntu18.04.1*
G04 #@! TF.CreationDate,2020-04-19T21:09:33+03:00*
G04 #@! TF.ProjectId,buzzer,62757a7a-6572-42e6-9b69-6361645f7063,rev?*
G04 #@! TF.SameCoordinates,Original*
G04 #@! TF.FileFunction,Legend,Top*
G04 #@! TF.FilePolarity,Positive*
%FSLAX46Y46*%
G04 Gerber Fmt 4.6, Leading zero omitted, Abs format (unit mm)*
G04 Created by KiCad (PCBNEW 5.1.5-52549c5~86~ubuntu18.04.1) date 2020-04-19 21:09:33*
%MOMM*%
%LPD*%
G04 APERTURE LIST*
%ADD10C,0.150000*%
%ADD11C,0.300000*%
%ADD12C,0.600000*%
%ADD13C,0.120000*%
%ADD14C,0.125000*%
G04 APERTURE END LIST*
D10*
X135675714Y-85018571D02*
X136009047Y-85018571D01*
X136151904Y-85542380D02*
X135675714Y-85542380D01*
X135675714Y-84542380D01*
X136151904Y-84542380D01*
X136199523Y-87987142D02*
X136151904Y-88034761D01*
X136009047Y-88082380D01*
X135913809Y-88082380D01*
X135770952Y-88034761D01*
X135675714Y-87939523D01*
X135628095Y-87844285D01*
X135580476Y-87653809D01*
X135580476Y-87510952D01*
X135628095Y-87320476D01*
X135675714Y-87225238D01*
X135770952Y-87130000D01*
X135913809Y-87082380D01*
X136009047Y-87082380D01*
X136151904Y-87130000D01*
X136199523Y-87177619D01*
X135961428Y-90098571D02*
X136104285Y-90146190D01*
X136151904Y-90193809D01*
X136199523Y-90289047D01*
X136199523Y-90431904D01*
X136151904Y-90527142D01*
X136104285Y-90574761D01*
X136009047Y-90622380D01*
X135628095Y-90622380D01*
X135628095Y-89622380D01*
X135961428Y-89622380D01*
X136056666Y-89670000D01*
X136104285Y-89717619D01*
X136151904Y-89812857D01*
X136151904Y-89908095D01*
X136104285Y-90003333D01*
X136056666Y-90050952D01*
X135961428Y-90098571D01*
X135628095Y-90098571D01*
D11*
X141986095Y-95138857D02*
X143509904Y-95138857D01*
X142748095Y-83454857D02*
X144271904Y-83454857D01*
X143510000Y-84216761D02*
X143510000Y-82692952D01*
D10*
X129159000Y-84963000D02*
X131445000Y-84963000D01*
X129159000Y-84836000D02*
X131445000Y-84836000D01*
X129159000Y-84709000D02*
X131445000Y-84709000D01*
X129159000Y-89027000D02*
X131445000Y-89027000D01*
X129159000Y-89154000D02*
X131445000Y-89154000D01*
X129159000Y-89281000D02*
X131445000Y-89281000D01*
D12*
X130302000Y-84582000D02*
X130302000Y-83820000D01*
X130302000Y-89408000D02*
X130302000Y-90170000D01*
D10*
X129159000Y-84582000D02*
X129159000Y-89408000D01*
X131445000Y-89408000D02*
X131445000Y-84582000D01*
X129159000Y-89408000D02*
X131445000Y-89408000D01*
X131445000Y-84582000D02*
X129159000Y-84582000D01*
D13*
X152150000Y-88890000D02*
G75*
G03X152150000Y-88890000I-6100000J0D01*
G01*
D10*
X137160000Y-92202000D02*
X132080000Y-92202000D01*
X137160000Y-93218000D02*
X137160000Y-92202000D01*
X132080000Y-93218000D02*
X137160000Y-93218000D01*
X132080000Y-92202000D02*
X132080000Y-93218000D01*
D13*
X141713000Y-94234000D02*
G75*
G03X141713000Y-94234000I-1251000J0D01*
G01*
D10*
X139573000Y-90932000D02*
X139573000Y-84328000D01*
X139446000Y-90932000D02*
X139573000Y-90932000D01*
X137287000Y-90932000D02*
X139446000Y-90932000D01*
X137287000Y-84328000D02*
X137287000Y-90932000D01*
X139573000Y-84328000D02*
X137287000Y-84328000D01*
X137668000Y-84328000D02*
X137668000Y-90932000D01*
X132588000Y-84368000D02*
X132588000Y-90972000D01*
X134493000Y-84368000D02*
X132207000Y-84368000D01*
X132207000Y-84368000D02*
X132207000Y-90972000D01*
X132207000Y-90972000D02*
X134366000Y-90972000D01*
X134366000Y-90972000D02*
X134493000Y-90972000D01*
X134493000Y-90972000D02*
X134493000Y-84368000D01*
D13*
X142221000Y-83820000D02*
G75*
G03X142221000Y-83820000I-1251000J0D01*
G01*
D10*
X128722380Y-89066666D02*
X128246190Y-89400000D01*
X128722380Y-89638095D02*
X127722380Y-89638095D01*
X127722380Y-89257142D01*
X127770000Y-89161904D01*
X127817619Y-89114285D01*
X127912857Y-89066666D01*
X128055714Y-89066666D01*
X128150952Y-89114285D01*
X128198571Y-89161904D01*
X128246190Y-89257142D01*
X128246190Y-89638095D01*
X128722380Y-88114285D02*
X128722380Y-88685714D01*
X128722380Y-88400000D02*
X127722380Y-88400000D01*
X127865238Y-88495238D01*
X127960476Y-88590476D01*
X128008095Y-88685714D01*
X127817619Y-86351904D02*
X127770000Y-86304285D01*
X127722380Y-86209047D01*
X127722380Y-85970952D01*
X127770000Y-85875714D01*
X127817619Y-85828095D01*
X127912857Y-85780476D01*
X128008095Y-85780476D01*
X128150952Y-85828095D01*
X128722380Y-86399523D01*
X128722380Y-85780476D01*
X127722380Y-85161428D02*
X127722380Y-85066190D01*
X127770000Y-84970952D01*
X127817619Y-84923333D01*
X127912857Y-84875714D01*
X128103333Y-84828095D01*
X128341428Y-84828095D01*
X128531904Y-84875714D01*
X128627142Y-84923333D01*
X128674761Y-84970952D01*
X128722380Y-85066190D01*
X128722380Y-85161428D01*
X128674761Y-85256666D01*
X128627142Y-85304285D01*
X128531904Y-85351904D01*
X128341428Y-85399523D01*
X128103333Y-85399523D01*
X127912857Y-85351904D01*
X127817619Y-85304285D01*
X127770000Y-85256666D01*
X127722380Y-85161428D01*
X128722380Y-84399523D02*
X127722380Y-84399523D01*
X128722380Y-83828095D02*
X128150952Y-84256666D01*
X127722380Y-83828095D02*
X128293809Y-84399523D01*
X146502380Y-89532857D02*
X146502380Y-90009047D01*
X145502380Y-90009047D01*
X146454761Y-89247142D02*
X146502380Y-89104285D01*
X146502380Y-88866190D01*
X146454761Y-88770952D01*
X146407142Y-88723333D01*
X146311904Y-88675714D01*
X146216666Y-88675714D01*
X146121428Y-88723333D01*
X146073809Y-88770952D01*
X146026190Y-88866190D01*
X145978571Y-89056666D01*
X145930952Y-89151904D01*
X145883333Y-89199523D01*
X145788095Y-89247142D01*
X145692857Y-89247142D01*
X145597619Y-89199523D01*
X145550000Y-89151904D01*
X145502380Y-89056666D01*
X145502380Y-88818571D01*
X145550000Y-88675714D01*
X146502380Y-87723333D02*
X146502380Y-88294761D01*
X146502380Y-88009047D02*
X145502380Y-88009047D01*
X145645238Y-88104285D01*
X145740476Y-88199523D01*
X145788095Y-88294761D01*
X148153428Y-85978952D02*
X148153428Y-85217047D01*
X148534380Y-85598000D02*
X147772476Y-85598000D01*
X132167333Y-94845142D02*
X132119714Y-94892761D01*
X131976857Y-94940380D01*
X131881619Y-94940380D01*
X131738761Y-94892761D01*
X131643523Y-94797523D01*
X131595904Y-94702285D01*
X131548285Y-94511809D01*
X131548285Y-94368952D01*
X131595904Y-94178476D01*
X131643523Y-94083238D01*
X131738761Y-93988000D01*
X131881619Y-93940380D01*
X131976857Y-93940380D01*
X132119714Y-93988000D01*
X132167333Y-94035619D01*
X133119714Y-94940380D02*
X132548285Y-94940380D01*
X132834000Y-94940380D02*
X132834000Y-93940380D01*
X132738761Y-94083238D01*
X132643523Y-94178476D01*
X132548285Y-94226095D01*
X134977333Y-94273714D02*
X134977333Y-94940380D01*
X134739238Y-93892761D02*
X134501142Y-94607047D01*
X135120190Y-94607047D01*
X135405904Y-93940380D02*
X136072571Y-93940380D01*
X135644000Y-94940380D01*
X136453523Y-94273714D02*
X136453523Y-94940380D01*
X136453523Y-94368952D02*
X136501142Y-94321333D01*
X136596380Y-94273714D01*
X136739238Y-94273714D01*
X136834476Y-94321333D01*
X136882095Y-94416571D01*
X136882095Y-94940380D01*
X137691619Y-94416571D02*
X137358285Y-94416571D01*
X137358285Y-94940380D02*
X137358285Y-93940380D01*
X137834476Y-93940380D01*
D14*
X137850571Y-83214714D02*
X137779142Y-83179000D01*
X137707714Y-83107571D01*
X137600571Y-83000428D01*
X137529142Y-82964714D01*
X137457714Y-82964714D01*
X137493428Y-83143285D02*
X137422000Y-83107571D01*
X137350571Y-83036142D01*
X137314857Y-82893285D01*
X137314857Y-82643285D01*
X137350571Y-82500428D01*
X137422000Y-82429000D01*
X137493428Y-82393285D01*
X137636285Y-82393285D01*
X137707714Y-82429000D01*
X137779142Y-82500428D01*
X137814857Y-82643285D01*
X137814857Y-82893285D01*
X137779142Y-83036142D01*
X137707714Y-83107571D01*
X137636285Y-83143285D01*
X137493428Y-83143285D01*
X138100571Y-82464714D02*
X138136285Y-82429000D01*
X138207714Y-82393285D01*
X138386285Y-82393285D01*
X138457714Y-82429000D01*
X138493428Y-82464714D01*
X138529142Y-82536142D01*
X138529142Y-82607571D01*
X138493428Y-82714714D01*
X138064857Y-83143285D01*
X138529142Y-83143285D01*
X136368428Y-84159285D02*
X136368428Y-83409285D01*
X136797000Y-84159285D02*
X136475571Y-83730714D01*
X136797000Y-83409285D02*
X136368428Y-83837857D01*
X137011285Y-83409285D02*
X137439857Y-83409285D01*
X137225571Y-84159285D02*
X137225571Y-83409285D01*
X137618428Y-83409285D02*
X138082714Y-83409285D01*
X137832714Y-83695000D01*
X137939857Y-83695000D01*
X138011285Y-83730714D01*
X138047000Y-83766428D01*
X138082714Y-83837857D01*
X138082714Y-84016428D01*
X138047000Y-84087857D01*
X138011285Y-84123571D01*
X137939857Y-84159285D01*
X137725571Y-84159285D01*
X137654142Y-84123571D01*
X137618428Y-84087857D01*
X138725571Y-83409285D02*
X138582714Y-83409285D01*
X138511285Y-83445000D01*
X138475571Y-83480714D01*
X138404142Y-83587857D01*
X138368428Y-83730714D01*
X138368428Y-84016428D01*
X138404142Y-84087857D01*
X138439857Y-84123571D01*
X138511285Y-84159285D01*
X138654142Y-84159285D01*
X138725571Y-84123571D01*
X138761285Y-84087857D01*
X138797000Y-84016428D01*
X138797000Y-83837857D01*
X138761285Y-83766428D01*
X138725571Y-83730714D01*
X138654142Y-83695000D01*
X138511285Y-83695000D01*
X138439857Y-83730714D01*
X138404142Y-83766428D01*
X138368428Y-83837857D01*
X139511285Y-84159285D02*
X139082714Y-84159285D01*
X139297000Y-84159285D02*
X139297000Y-83409285D01*
X139225571Y-83516428D01*
X139154142Y-83587857D01*
X139082714Y-83623571D01*
X133278571Y-83214714D02*
X133207142Y-83179000D01*
X133135714Y-83107571D01*
X133028571Y-83000428D01*
X132957142Y-82964714D01*
X132885714Y-82964714D01*
X132921428Y-83143285D02*
X132850000Y-83107571D01*
X132778571Y-83036142D01*
X132742857Y-82893285D01*
X132742857Y-82643285D01*
X132778571Y-82500428D01*
X132850000Y-82429000D01*
X132921428Y-82393285D01*
X133064285Y-82393285D01*
X133135714Y-82429000D01*
X133207142Y-82500428D01*
X133242857Y-82643285D01*
X133242857Y-82893285D01*
X133207142Y-83036142D01*
X133135714Y-83107571D01*
X133064285Y-83143285D01*
X132921428Y-83143285D01*
X133957142Y-83143285D02*
X133528571Y-83143285D01*
X133742857Y-83143285D02*
X133742857Y-82393285D01*
X133671428Y-82500428D01*
X133600000Y-82571857D01*
X133528571Y-82607571D01*
X131846428Y-84159285D02*
X131846428Y-83409285D01*
X132275000Y-84159285D02*
X131953571Y-83730714D01*
X132275000Y-83409285D02*
X131846428Y-83837857D01*
X132489285Y-83409285D02*
X132917857Y-83409285D01*
X132703571Y-84159285D02*
X132703571Y-83409285D01*
X133096428Y-83409285D02*
X133560714Y-83409285D01*
X133310714Y-83695000D01*
X133417857Y-83695000D01*
X133489285Y-83730714D01*
X133525000Y-83766428D01*
X133560714Y-83837857D01*
X133560714Y-84016428D01*
X133525000Y-84087857D01*
X133489285Y-84123571D01*
X133417857Y-84159285D01*
X133203571Y-84159285D01*
X133132142Y-84123571D01*
X133096428Y-84087857D01*
X134275000Y-84159285D02*
X133846428Y-84159285D01*
X134060714Y-84159285D02*
X134060714Y-83409285D01*
X133989285Y-83516428D01*
X133917857Y-83587857D01*
X133846428Y-83623571D01*
X134953571Y-83409285D02*
X134596428Y-83409285D01*
X134560714Y-83766428D01*
X134596428Y-83730714D01*
X134667857Y-83695000D01*
X134846428Y-83695000D01*
X134917857Y-83730714D01*
X134953571Y-83766428D01*
X134989285Y-83837857D01*
X134989285Y-84016428D01*
X134953571Y-84087857D01*
X134917857Y-84123571D01*
X134846428Y-84159285D01*
X134667857Y-84159285D01*
X134596428Y-84123571D01*
X134560714Y-84087857D01*
M02*
